PathFileType	4	(X/Y/Z)	7_coords_data.trc
DataRate	CameraRate	NumFrames	NumMarkers	Units	OrigDataRate	OrigDataStartFrame	OrigNumFrames
30.0	30.0	5	21	m	30.0	11	50
Frame#	Time	THUMB_TIP	THUMB_IP	THUMB_MCP	THUMB_CMC	INDEX_TIP	INDEX_DIP	INDEX_PIP	INDEX_MCP	MIDDLE_TIP	MIDDLE_DIP	MIDDLE_PIP	MIDDLE_MCP	RING_TIP	RING_DIP	RING_PIP	RING_MCP	PINKY_TIP	PINKY_DIP	PINKY_PIP	PINKY_MCP	WRIST
X1	Y1	Z1	X2	Y2	Z2	X3	Y3	Z3	X4	Y4	Z4	X5	Y5	Z5	X6	Y6	Z6	X7	Y7	Z7	X8	Y8	Z8	X9	Y9	Z9	X10	Y10	Z10	X11	Y11	Z11	X12	Y12	Z12	X13	Y13	Z13	X14	Y14	Z14	X15	Y15	Z15	X16	Y16	Z16	X17	Y17	Z17	X18	Y18	Z18	X19	Y19	Z19	X20	Y20	Z20	X21	Y21	Z21
9	0.33333333333333187	0.5328269581751549	-0.02695265566242233	-0.12790515603162284	0.5107235583699149	-0.02660754107008545	-0.13417577107066575	0.48263187219928605	-0.021967050500138363	-0.12160027842182142	0.4719150845750274	-0.027293552976868085	-0.07862739354796253	0.5560656501701249	0.08017055765703351	-0.1423574389873359	0.5432029654085235	0.0686460905225702	-0.1369041832634274	0.5261036388576098	0.05220226156409358	-0.12858412595054872	0.5007636048983615	0.02204346917712441	-0.11239876173766095	0.5129028793410272	-0.018365070512443737	-0.12400903945191763	0.5304348697086816	-0.017137228690349948	-0.12838187814187474	0.5455578027699164	0.0065569107609732	-0.12068160533588493	0.5158555112801175	0.0236376317776944	-0.09200808495899418	0.5281766816116942	-0.02454808854020496	-0.11079872557153533	0.5447005984100028	-0.017340986755484455	-0.11066509358712373	0.5575638336813753	0.001696382255804374	-0.10105802647580722	0.5288231160040507	0.014671255149613982	-0.07575299427306498	0.5969033373033553	0.02632632872136964	-0.05827233119068892	0.582316242294425	0.017821511905720455	-0.061080310915097635	0.5641304963991938	0.007948417808446795	-0.06463174417231354	0.532435286513295	-0.008423375447699666	-0.06994789944344862	0.4622830810018608	-0.023011742144276925	-0.051989820119430985
10	0.3666666666666651	0.5328202490682852	-0.026737701884235854	-0.12788015136126576	0.5107301944518611	-0.026372272596478785	-0.1341964753300828	0.4826425257357234	-0.021777819362206796	-0.12159513152989282	0.47192442039293503	-0.027215305448013205	-0.07863647742006821	0.5562526207477088	0.0802319093228977	-0.1421306213159848	0.5433506252316149	0.06875461685227191	-0.1366707431812266	0.5262062825568139	0.052353027156813	-0.1283599548485343	0.5008340566395283	0.02218005102867493	-0.11225164154226153	0.5129736175469326	-0.018237087683276143	-0.12392776315059464	0.5304945855840651	-0.016981872957698263	-0.12833685773275927	0.5456320115779727	0.0066845695694636165	-0.1205800940785336	0.5159048565936071	0.023686097143850948	-0.09188528204442459	0.5281342959261	-0.0244432710741177	-0.11078520378291395	0.54467384618282	-0.017272721868539898	-0.110622411289787	0.5575846118196759	0.0017285697843879566	-0.10100768169449581	0.5288527842166327	0.014668243917196566	-0.07567454628006792	0.5970939039824754	0.026007154358785756	-0.05839113815051153	0.5824530021497959	0.017581067952592067	-0.06115610856648279	0.5642181697835739	0.007788912709058127	-0.06467982865501293	0.5324443420980021	-0.008449936649385315	-0.06993407424514081	0.4622830810018609	-0.023011742144276925	-0.051989820119430985
11	0.39999999999999825	0.5328509500643797	-0.026697830750794016	-0.12789368778964544	0.5107590357404529	-0.026313739443350026	-0.1342023956899868	0.4826690684678626	-0.021756164290356317	-0.12159278636417423	0.4719290370876953	-0.027188728034608922	-0.07863898586738874	0.5564845148154886	0.08014969182611453	-0.14199293416528863	0.5435461437361233	0.06871798585331734	-0.13652350527698986	0.526353631280787	0.052362556465997856	-0.1282212599162749	0.500936923228047	0.022193713346050026	-0.1121754520349072	0.5130213174405299	-0.01814866653340974	-0.12387920210917722	0.5305507240684845	-0.016936328098926423	-0.12826670011967242	0.5457510131165753	0.0067020353949687195	-0.12054733912377522	0.5159948428094406	0.023624719192025467	-0.09183599950407734	0.5281134025591144	-0.024466291206984625	-0.11074089774499818	0.5446751561760019	-0.017346480714404477	-0.11061199590924711	0.5576438004651845	0.0016109052168685745	-0.1009884953531382	0.5289222084630549	0.014561283978687833	-0.07564922391947951	0.597325921655682	0.02551295879066373	-0.05848007568005947	0.5826298928844063	0.01717582934470896	-0.06122215718053153	0.5643297530942911	0.0074990684169192745	-0.06472604082709382	0.5324674470700127	-0.008576630267202678	-0.06994608083005843	0.462283081001861	-0.023011742144276925	-0.051989820119430985
12	0.43333333333333146	0.532874998635206	-0.02677206933411691	-0.1278772829536996	0.5107834529189443	-0.02635866366302886	-0.13418542876823458	0.48268629288011455	-0.021796208180048238	-0.12159362199882284	0.47192458204266896	-0.027190131525003824	-0.07864037799094895	0.556634243229747	0.08006237289986173	-0.14193341226724265	0.5436751024976448	0.0686602970943605	-0.13645131970954422	0.5264530324653877	0.05233538418358197	-0.12815027427782136	0.5010202547790751	0.022155674879497322	-0.1121504286698303	0.513117505907062	-0.01827446463779503	-0.12378925567049145	0.5306269136390236	-0.016963114621563635	-0.12822783675129307	0.5458581369793856	0.00667160738382333	-0.12055846250797339	0.5160807206294462	0.023529749642666187	-0.091831185642545	0.5281268394897043	-0.024501965227392897	-0.11073366356116551	0.5447139435867192	-0.017441759369863474	-0.11058713395971026	0.5577170026275033	0.0015023916421998962	-0.10098403149154805	0.5289845817271344	0.01444728010284757	-0.07565423311206149	0.5975387714102554	0.025047605078842405	-0.05856067939880216	0.5827920874215691	0.016791080089314403	-0.06127455235734741	0.5644351974196704	0.0072167054936911335	-0.06476281260579139	0.5324911363834006	-0.008704709754694173	-0.06995597657388986	0.462283081001861	-0.023011742144276925	-0.05198982011943101
13	0.4666666666666647	0.5329076641723562	-0.0269416752746523	-0.1278517268784302	0.5108207412042052	-0.026475917081838718	-0.1341723995566176	0.48271993655225987	-0.02191539996249947	-0.12158802585279677	0.47193902270035115	-0.027227010368391924	-0.07862933998586474	0.556785306189035	0.07990161522992767	-0.14194975117394146	0.5438146237562014	0.06851624013114932	-0.1364602492760729	0.5265720180061161	0.05221297401703584	-0.1281592918638507	0.5011199794271368	0.022043966215954947	-0.11216989555027879	0.5131940974131236	-0.018358103916737534	-0.1237728437693906	0.5307157841080192	-0.017071268846170273	-0.12816995087146066	0.5459850468091687	0.006567455438583614	-0.12058906169190683	0.516178721606736	0.02338475825929842	-0.0918678286967306	0.52814879025549	-0.024596997445262447	-0.11068984399380957	0.5447748033869815	-0.01762840870450222	-0.11056960126585869	0.557788370193368	0.0013143109204653003	-0.10097791574215681	0.5290561505942324	0.01430779096599677	-0.07567278054762705	0.5977379965747199	0.024582557964898943	-0.058641059259139816	0.5829457115245136	0.016400702618010188	-0.06133281446272523	0.5645361389570147	0.006918362585493054	-0.06479473363996241	0.5325185621573675	-0.008859995911549956	-0.06997176271245961	0.4622830810018608	-0.023011742144276925	-0.051989820119430985
